<?xml version="1.0" standalone="no"?>
<!DOCTYPE svg PUBLIC "-//W3C//DTD SVG 20010904//EN"
 "http://www.w3.org/TR/2001/REC-SVG-20010904/DTD/svg10.dtd">
<svg version="1.0" xmlns="http://www.w3.org/2000/svg"
 width="1024.000000pt" height="1024.000000pt" viewBox="0 0 1024.000000 1024.000000"
 preserveAspectRatio="xMidYMid meet">
<metadata>
Created by potrace 1.11, written by Peter Selinger 2001-2013
</metadata>
<g transform="translate(0.000000,1024.000000) scale(0.100000,-0.100000)"
fill="#000000" stroke="none">
<path d="M1540 9600 c0 -3 -20 -5 -44 -6 -74 -1 -149 -53 -195 -133 -10 -17
-15 -55 -15 -108 l-1 -82 157 -316 158 -315 -110 -110 c-61 -61 -110 -114
-110 -120 0 -5 -4 -10 -8 -10 -14 0 -69 -121 -81 -179 -15 -72 -15 -2909 0
-2965 6 -21 12 -46 14 -55 6 -32 47 -126 61 -142 8 -8 14 -20 14 -25 0 -22
155 -184 176 -184 3 0 17 -8 30 -19 13 -10 86 -46 162 -79 76 -34 151 -68 167
-76 17 -9 33 -16 37 -16 4 0 35 -13 70 -30 95 -44 402 -181 413 -184 6 -1 26
-10 45 -19 111 -53 319 -67 420 -29 14 5 27 10 30 10 3 0 18 5 33 11 16 6 34
11 41 11 6 0 16 4 22 8 5 5 59 29 119 52 109 43 200 91 242 127 51 43 59 51
83 79 14 16 37 47 52 69 30 44 89 171 82 177 -2 2 5 28 16 56 11 29 17 52 14
52 -4 0 -2 6 4 13 8 10 24 64 26 89 1 3 4 10 8 14 5 4 8 17 8 29 0 11 5 26 12
33 7 7 9 12 5 12 -3 0 0 19 9 41 8 23 16 51 18 63 3 12 17 57 31 101 15 44 29
91 31 105 13 66 66 155 132 219 62 60 91 77 308 186 131 65 244 120 251 121 8
1 9 -5 4 -19 -5 -12 -5 -31 -1 -42 4 -11 4 -29 0 -40 -4 -11 -4 -30 1 -42 5
-13 5 -23 1 -23 -9 0 -7 -54 3 -69 3 -6 3 -11 -2 -11 -10 0 -9 -133 1 -149 4
-6 4 -11 -1 -11 -10 0 -9 -122 0 -138 4 -6 4 -13 -1 -16 -9 -6 -8 -59 3 -75 3
-6 3 -11 -2 -11 -4 0 -8 -20 -8 -45 0 -25 4 -45 8 -45 5 0 5 -5 2 -11 -11 -16
-12 -69 -3 -69 5 0 5 -8 1 -17 -10 -22 -10 -54 0 -70 4 -6 4 -14 -1 -17 -9 -5
-7 -89 2 -105 4 -6 3 -11 -2 -11 -5 0 -8 -11 -7 -24 2 -13 -3 -57 -11 -97 -8
-41 -15 -81 -17 -89 -5 -28 -30 -95 -40 -107 -5 -7 -6 -13 -3 -13 7 0 -62
-139 -74 -150 -3 -3 -17 -24 -32 -47 -26 -40 -125 -144 -178 -188 -43 -35
-154 -105 -167 -105 -7 0 -13 -4 -13 -10 0 -5 -3 -9 -7 -8 -14 4 -1196 -594
-1278 -645 -44 -28 -82 -54 -85 -57 -3 -3 -27 -23 -55 -44 -115 -91 -251 -242
-341 -381 -21 -33 -43 -63 -47 -66 -5 -3 -7 -8 -5 -10 4 -6 -55 -122 -67 -131
-5 -4 -7 -8 -3 -8 4 0 -2 -21 -13 -47 -45 -105 -80 -228 -98 -348 -21 -134
-30 -265 -19 -265 4 0 3 -13 -2 -30 -5 -17 -5 -30 0 -30 5 0 5 -13 0 -30 -5
-17 -5 -30 0 -30 5 0 5 -13 0 -30 -5 -17 -5 -30 0 -30 5 0 5 -12 1 -28 -5 -15
-5 -37 0 -49 8 -21 13 -22 156 -23 81 0 157 -1 168 -1 148 1 204 1 212 0 4 -1
13 -1 18 0 6 2 62 2 125 1 63 -1 122 -1 130 -1 54 1 199 1 207 0 4 -1 13 -1
18 0 6 1 89 1 185 1 96 -1 182 -1 190 -1 8 0 80 0 160 0 80 0 152 0 160 0 8 0
103 0 210 0 236 0 193 0 330 1 63 1 120 0 125 -1 6 -1 14 -1 19 0 7 2 72 2
199 0 9 0 53 0 97 0 110 0 103 0 220 0 58 0 112 0 120 0 8 0 116 0 240 0 124
0 231 0 238 0 6 0 55 0 107 0 52 0 101 0 108 0 6 0 64 1 127 1 63 1 120 0 125
-1 6 -1 14 -1 19 0 5 1 50 2 100 1 50 0 100 -1 111 -1 25 0 565 0 583 0 6 0
55 0 107 0 52 0 101 0 108 0 6 0 64 1 127 1 63 1 120 0 125 -1 6 -1 14 -1 19
0 5 1 50 2 100 1 117 -1 95 -1 354 0 123 0 228 -2 233 -5 5 -4 9 -3 9 2 0 4
53 7 117 5 123 -3 142 -3 233 1 l55 2 0 100 c-1 58 4 103 10 107 6 5 6 8 0 8
-6 0 -10 58 -10 155 0 97 4 155 10 155 7 0 6 3 0 8 -14 10 -14 312 0 312 7 0
7 3 0 8 -7 4 -11 65 -11 157 0 92 4 153 11 157 6 5 6 8 0 8 -7 0 -9 58 -8 163
2 89 3 167 3 172 0 6 -1 55 -3 110 -1 55 1 106 6 112 5 7 6 13 1 13 -5 0 -8
53 -6 117 1 65 2 123 2 128 0 6 -1 55 -3 110 -1 55 1 106 6 113 5 6 6 12 1 12
-13 0 -12 533 1 542 6 5 6 8 0 8 -6 0 -10 58 -10 155 0 97 4 155 10 155 6 0 6
3 0 8 -14 10 -14 304 0 314 7 5 7 8 0 8 -14 0 -14 302 0 312 6 5 6 8 0 8 -6 0
-10 55 -11 143 0 137 -10 330 -19 372 -2 11 -7 45 -11 75 -3 30 -7 64 -9 75
-8 57 -22 139 -30 185 -2 8 -8 35 -14 60 -7 25 -14 56 -16 70 -7 38 -13 65
-15 65 -1 0 -3 7 -5 15 -20 97 -113 381 -143 435 -9 17 -15 31 -14 32 7 11
-145 345 -160 351 -5 2 -8 12 -8 23 0 10 -3 19 -8 19 -4 0 -15 17 -25 38 -23
49 -43 82 -97 167 -25 39 -49 78 -55 87 -28 47 -199 280 -225 308 -8 9 -33 37
-55 64 -107 129 -299 322 -435 436 -36 30 -67 58 -70 61 -9 10 -205 156 -235
175 -16 10 -32 21 -35 24 -14 14 -71 50 -80 50 -5 0 -10 4 -10 9 0 5 -8 11
-17 15 -10 3 -27 11 -38 18 -81 53 -108 68 -165 98 -36 18 -68 37 -71 42 -3 5
-10 10 -15 11 -5 0 -54 21 -109 47 -55 25 -143 64 -195 84 -52 21 -108 44
-125 51 -31 13 -206 71 -260 86 -88 24 -112 30 -135 35 -14 3 -43 10 -65 16
-50 13 -72 17 -110 23 -16 3 -41 7 -55 10 -33 8 -55 12 -115 21 -168 25 -303
37 -422 38 -51 1 -93 5 -93 9 0 4 -8 3 -18 -2 -10 -5 -24 -6 -32 -1 -8 5 -21
5 -31 -1 -11 -6 -20 -5 -24 1 -3 6 -15 6 -30 0 -15 -6 -27 -6 -30 0 -3 6 -15
6 -30 0 -15 -6 -27 -6 -30 0 -3 6 -15 6 -30 0 -15 -6 -25 -6 -25 0 0 5 -12 5
-30 0 -17 -5 -32 -5 -35 0 -3 5 -16 5 -30 0 -15 -6 -27 -6 -30 0 -3 6 -15 6
-30 0 -15 -6 -27 -6 -30 0 -3 6 -15 6 -30 0 -15 -6 -25 -6 -25 0 0 5 -12 5
-30 0 -17 -5 -32 -5 -35 0 -3 6 -16 5 -29 0 -13 -5 -27 -6 -30 -3 -7 7 -111 7
-123 0 -5 -3 -15 -2 -23 3 -7 4 -24 4 -37 -1 -12 -5 -23 -5 -23 -1 0 4 -32 7
-70 7 -39 0 -70 -3 -70 -6 0 -4 -18 -3 -39 1 -21 4 -45 3 -53 -1 -8 -4 -20 -4
-28 1 -7 4 -24 4 -37 -1 -12 -5 -23 -5 -23 -1 0 4 -32 7 -70 7 -39 0 -70 -2
-70 -5 0 -7 -89 -4 -96 3 -4 3 -17 2 -30 -3 -14 -6 -24 -6 -24 0 0 5 -12 5
-28 1 -15 -5 -37 -5 -49 0 -13 5 -25 4 -28 -1 -3 -6 -15 -6 -30 0 -15 6 -27 6
-30 0 -3 -6 -15 -6 -30 0 -15 6 -27 6 -30 0 -4 -6 -13 -7 -24 -1 -9 5 -23 6
-31 1 -7 -4 -24 -4 -36 0 -14 6 -26 5 -29 0 -3 -6 -15 -6 -30 0 -15 6 -27 6
-30 0 -3 -6 -15 -6 -30 0 -15 6 -27 6 -30 0 -4 -6 -13 -7 -24 -1 -9 5 -23 6
-31 1 -7 -4 -24 -4 -36 0 -14 6 -26 5 -29 0 -3 -6 -15 -6 -30 0 -15 6 -27 6
-30 0 -3 -6 -15 -6 -30 0 -15 6 -27 6 -30 0 -4 -6 -13 -7 -24 -1 -9 5 -23 6
-31 1 -7 -4 -24 -4 -36 0 -14 6 -26 5 -29 0 -3 -6 -15 -6 -30 0 -15 6 -27 6
-30 0 -3 -6 -15 -6 -30 0 -15 6 -27 6 -30 0 -4 -6 -13 -7 -24 -1 -9 5 -23 6
-31 1 -7 -4 -23 -5 -35 0 -12 5 -28 4 -35 0 -8 -5 -18 -6 -23 -3 -5 3 -35 5
-67 5 -32 0 -62 -2 -67 -5 -5 -3 -15 -2 -23 3 -7 4 -24 4 -37 -1 -12 -5 -23
-5 -23 -1 0 4 -32 7 -70 7 -39 0 -70 -4 -70 -8 0 -5 -4 -5 -10 -2 -13 8 -90
12 -90 5z m809 -1925 c71 -2 146 -26 189 -60 41 -32 112 -103 112 -112 0 -6 4
-13 8 -15 4 -1 19 -28 32 -58 46 -107 31 -263 -34 -364 -31 -48 -97 -116 -112
-116 -4 0 -15 -6 -23 -13 -23 -20 -100 -46 -151 -53 -25 -3 -51 -7 -57 -9 -7
-3 -13 0 -13 6 0 6 -3 8 -8 5 -13 -8 -104 13 -151 36 -25 13 -73 50 -106 84
-66 67 -103 143 -112 230 -6 65 -6 64 1 99 3 17 8 40 10 53 17 84 139 231 206
248 3 0 22 8 42 18 21 9 49 17 63 18 14 1 25 6 25 11 0 4 5 5 11 1 6 -3 37 -7
68 -9z"/>
<path d="M1646 1283 c-1 -1 -32 -4 -70 -7 -128 -9 -236 -93 -276 -213 -20 -59
-21 -79 -18 -445 2 -225 7 -389 13 -398 5 -8 10 -20 11 -27 7 -42 91 -128 162
-164 l47 -24 3585 -3 c3517 -2 3586 -2 3642 17 57 19 66 25 117 71 33 30 80
102 84 130 2 11 6 22 10 26 11 12 8 759 -4 796 -43 131 -149 225 -266 233 -24
1 -46 5 -49 8 -4 3 -17 2 -30 -3 -13 -5 -24 -6 -24 -2 0 4 -27 7 -60 7 -33 0
-60 -3 -60 -7 0 -4 -10 -4 -23 1 -13 5 -30 5 -39 0 -10 -6 -19 -6 -23 0 -3 7
-15 7 -30 1 -15 -6 -27 -6 -30 0 -3 6 -15 6 -30 0 -14 -5 -25 -6 -25 -2 0 4
-27 7 -60 7 -33 0 -60 -3 -60 -7 0 -4 -10 -4 -23 1 -13 5 -30 5 -39 0 -10 -6
-19 -6 -23 0 -3 7 -15 7 -30 1 -15 -6 -27 -6 -30 0 -3 6 -15 6 -30 0 -14 -5
-25 -6 -25 -2 0 4 -27 7 -60 7 -33 0 -60 -3 -60 -7 0 -4 -10 -4 -23 1 -13 5
-30 5 -39 0 -10 -6 -19 -6 -23 0 -3 6 -15 7 -28 3 -12 -5 -33 -7 -47 -5 -14 2
-31 3 -37 3 -7 0 -20 0 -28 0 -8 0 -23 0 -32 0 -26 0 -73 1 -110 3 -18 1 -33
-1 -33 -5 0 -3 -14 -3 -30 2 -18 5 -30 5 -30 0 0 -6 -10 -6 -25 0 -15 6 -27 6
-30 0 -3 -6 -15 -6 -30 0 -15 6 -27 6 -30 0 -4 -6 -13 -7 -24 -1 -10 6 -23 6
-31 1 -8 -5 -21 -5 -30 0 -9 5 -23 4 -32 -1 -10 -6 -19 -6 -23 0 -3 7 -15 7
-29 1 -13 -5 -26 -7 -28 -5 -8 8 -108 11 -108 4 0 -4 -14 -4 -30 1 -18 5 -30
5 -30 0 0 -6 -10 -6 -25 0 -15 6 -27 6 -30 0 -3 -6 -15 -6 -30 0 -15 6 -27 6
-30 0 -4 -6 -13 -7 -24 -1 -10 6 -23 6 -31 1 -8 -5 -21 -5 -30 0 -9 5 -23 4
-32 -1 -10 -6 -19 -6 -23 0 -3 7 -15 7 -29 1 -13 -5 -26 -7 -28 -5 -8 8 -108
11 -108 4 0 -4 -14 -4 -30 1 -17 5 -30 5 -30 0 0 -5 -13 -5 -30 0 -18 5 -30 5
-30 0 0 -6 -10 -6 -25 0 -15 6 -26 6 -30 0 -4 -6 -13 -7 -23 -1 -11 6 -24 6
-34 0 -10 -6 -19 -6 -23 0 -4 7 -15 7 -30 1 -15 -6 -25 -6 -25 0 0 5 -12 5
-30 0 -17 -5 -30 -6 -30 -2 0 4 -38 7 -85 7 -47 0 -85 -3 -85 -7 0 -4 -13 -3
-30 2 -18 5 -30 5 -30 0 0 -6 -10 -6 -24 0 -13 5 -27 6 -30 3 -8 -8 -74 -8
-82 0 -3 3 -17 2 -30 -3 -14 -6 -24 -6 -24 0 0 5 -12 5 -30 0 -16 -5 -30 -6
-30 -2 0 4 -38 7 -85 7 -47 0 -85 -3 -85 -7 0 -4 -13 -3 -30 2 -18 5 -30 5
-30 0 0 -6 -10 -6 -24 0 -13 5 -27 6 -30 3 -7 -7 -86 -10 -86 -3 0 7 -59 5
-66 -3 -3 -3 -18 -1 -33 4 -14 6 -26 10 -26 10 0 0 -12 -4 -27 -10 -16 -6 -28
-7 -28 -3 0 4 -27 7 -60 7 -33 0 -60 -3 -60 -7 0 -4 -10 -4 -23 1 -13 5 -30 5
-39 0 -10 -6 -19 -6 -23 0 -3 7 -15 7 -30 1 -15 -6 -27 -6 -30 0 -3 6 -15 6
-30 0 -14 -5 -25 -6 -25 -2 0 4 -27 7 -60 7 -33 0 -60 -3 -60 -7 0 -4 -10 -4
-23 1 -13 5 -30 5 -39 0 -10 -6 -19 -6 -23 0 -3 7 -15 7 -30 1 -15 -6 -27 -6
-30 0 -3 6 -15 6 -30 0 -14 -5 -25 -6 -25 -2 0 4 -27 7 -60 7 -33 0 -60 -3
-60 -7 0 -4 -10 -4 -23 1 -13 5 -30 5 -39 0 -10 -6 -19 -6 -23 0 -3 7 -15 7
-30 1 -15 -6 -27 -6 -30 0 -3 6 -15 6 -30 0 -14 -5 -25 -6 -25 -2 0 4 -27 7
-60 7 -33 0 -60 -3 -60 -7 0 -4 -10 -4 -23 1 -13 5 -30 5 -39 0 -10 -6 -19 -6
-23 0 -3 6 -15 7 -28 3 -24 -9 -59 -8 -74 1 -5 3 -15 2 -23 -3 -7 -4 -24 -4
-36 0 -14 6 -26 5 -29 0 -4 -6 -13 -7 -24 -1 -10 6 -23 6 -31 1 -8 -5 -21 -5
-30 0 -9 5 -23 4 -32 -1 -10 -6 -19 -6 -23 0 -3 6 -15 7 -28 2 -12 -5 -32 -5
-44 0 -13 5 -25 4 -28 -1 -4 -6 -13 -7 -24 -1 -10 6 -23 6 -31 1 -8 -5 -21 -5
-30 0 -9 5 -23 4 -32 -1 -10 -6 -19 -6 -23 0 -3 7 -15 7 -30 1 -15 -6 -27 -6
-30 0 -3 6 -15 6 -30 0 -15 -6 -25 -6 -25 0 0 5 -12 5 -30 0 -17 -5 -30 -5
-30 -1 0 7 -100 4 -108 -4 -2 -2 -15 0 -28 5 -14 6 -26 6 -29 0 -4 -6 -13 -7
-23 -1 -10 5 -24 6 -33 1 -8 -5 -21 -5 -29 0 -8 5 -21 5 -31 -1 -11 -6 -20 -5
-24 1 -3 6 -15 6 -30 0 -15 -6 -27 -6 -30 0 -3 6 -15 6 -30 0 -15 -6 -25 -6
-25 0 0 5 -12 5 -30 0 -16 -5 -30 -5 -30 -1 0 7 -100 4 -108 -4 -2 -2 -15 0
-28 5 -14 6 -26 6 -29 0 -4 -6 -13 -7 -24 -1 -10 6 -23 6 -31 1 -8 -5 -21 -5
-30 0 -9 5 -23 4 -32 -1 -10 -6 -19 -6 -23 0 -3 7 -15 7 -30 1 -15 -6 -27 -6
-30 0 -3 6 -15 6 -30 0 -15 -6 -25 -6 -25 0 0 5 -12 5 -30 0 -16 -5 -30 -5
-30 -1 0 7 -100 4 -108 -4 -2 -2 -15 0 -28 5 -14 6 -26 6 -29 -1 -4 -6 -13 -6
-23 0 -9 5 -23 6 -32 1 -9 -5 -22 -5 -30 0 -8 5 -21 5 -31 -1 -11 -6 -20 -5
-24 1 -3 6 -15 6 -30 0 -15 -6 -27 -6 -30 0 -3 6 -15 6 -30 0 -15 -6 -25 -6
-25 0 0 5 -12 5 -30 0 -16 -5 -30 -6 -30 -2 0 6 -58 10 -64 5z"/>
</g>
</svg>
